<?xml version="1.0" standalone="no"?><!DOCTYPE svg PUBLIC "-//W3C//DTD SVG 1.1//EN" "http://www.w3.org/Graphics/SVG/1.1/DTD/svg11.dtd"><svg t="1674883385785" class="icon" viewBox="0 0 1024 1024" version="1.1" xmlns="http://www.w3.org/2000/svg" p-id="2701" xmlns:xlink="http://www.w3.org/1999/xlink" width="200" height="200"><path d="M66.861804 150.324704l0 723.349569 890.276393 0L957.138196 150.324704 66.861804 150.324704 66.861804 150.324704zM901.495922 818.031998 122.504078 818.031998 122.504078 205.966978l778.991844 0L901.495922 818.031998 901.495922 818.031998zM678.926824 345.073176c0 46.091758 37.357839 83.463923 83.463923 83.463923 46.105061 0 83.463923-37.372166 83.463923-83.463923s-37.358863-83.449597-83.463923-83.449597C716.284663 261.623579 678.926824 298.981419 678.926824 345.073176L678.926824 345.073176zM845.853647 762.376421l-667.707294 0L345.073176 317.251527l222.569098 278.211373 111.284549-83.463923L845.853647 762.376421 845.853647 762.376421zM845.853647 762.376421" fill="#272636" p-id="2702"></path></svg>